<svg xmlns="http://www.w3.org/2000/svg" xmlns:xlink="http://www.w3.org/1999/xlink" width="16" height="16" viewBox="0 0 16 16">
    <defs>
        <path id="a" d="M10.765 7.921c-.625 0-1.131.7-1.131 1.565 0 .864.506 1.565 1.13 1.565.625 0 1.13-.7 1.13-1.565 0-.864-.505-1.565-1.13-1.565zM14.7 3.85c.129-.318.135-2.122-.551-3.849 0 0-1.575.173-3.958 1.808-.5-.138-1.346-.207-2.191-.207-.845 0-1.691.069-2.191.207C3.426.173 1.851 0 1.851 0c-.686 1.727-.68 3.531-.551 3.849C.493 4.725 0 5.777 0 7.214c0 6.25 5.184 6.35 6.493 6.35L8 13.565l1.507-.001c1.309 0 6.493-.1 6.493-6.35 0-1.437-.493-2.489-1.3-3.365zm-6.675 8.946h-.05c-3.28 0-5.833-.391-5.833-3.579 0-.763.27-1.472.91-2.06 1.067-.98 2.873-.461 4.924-.461a.596.596 0 0 0 .049 0c2.05 0 3.857-.519 4.924.461.64.588.91 1.297.91 2.06 0 3.188-2.555 3.58-5.834 3.58zm-2.79-4.874c-.624 0-1.13.7-1.13 1.565 0 .864.506 1.565 1.13 1.565.625 0 1.131-.7 1.131-1.565 0-.864-.506-1.565-1.13-1.565z"/>
    </defs>
    <use fill="#1F2933" fill-rule="nonzero" transform="translate(0 1)" xlink:href="#a"/>
</svg>
